<?xml version="1.0" encoding="UTF-8" standalone="no"?>
<svg
   xmlns:dc="http://purl.org/dc/elements/1.1/"
   xmlns:cc="http://creativecommons.org/ns#"
   xmlns:rdf="http://www.w3.org/1999/02/22-rdf-syntax-ns#"
   xmlns:svg="http://www.w3.org/2000/svg"
   xmlns="http://www.w3.org/2000/svg"
   id="svg26"
   xml:space="preserve"
   enable-background="new 0 0 1000 444"
   viewBox="0 0 840 190"
   height="190"
   width="840"
   y="0px"
   x="0px"
   version="1.1"><metadata
     id="metadata32"><rdf:RDF><cc:Work
         rdf:about=""><dc:format>image/svg+xml</dc:format><dc:type
           rdf:resource="http://purl.org/dc/dcmitype/StillImage" /><dc:title></dc:title></cc:Work></rdf:RDF></metadata><defs
     id="defs30" /><g
     transform="translate(-80.56872,-137.88626)"
     enable-background="new    "
     id="Rectangle_1_1_"><g
       id="Rectangle_1"><g
         id="g4"><path
           style="clip-rule:evenodd;fill:#56caf1;fill-rule:evenodd"
           id="path2"
           d="m 177.076,214.762 v 14.036 l 48.739,28.07 v 13.026 l -59.773,34.152 -60.856,-34.855 V 227.48 L 93,220.519 v 55.674 L 166.012,318.01 238,276.879 v -27.028 z m 0,55.632 v 13.945 l 38.242,-21.85 -85.788,-49.408 23.785,-13.623 v -13.979 l -35.955,20.593 -0.049,14.008 73.617,42.399 z m 24.979,-53.282 12.185,6.686 v -18.036 l -37.164,-21.233 v 13.945 l 24.979,14.271 z m -48.74,52.297 -24.37,-13.958 V 241.423 L 116.76,234.13 v 28.322 l 36.555,20.937 z" /></g></g></g><g
     transform="translate(-80.56872,-137.88626)"
     enable-background="new    "
     id="Rectangle_1_copy_1_"><g
       id="Rectangle_1_copy"><g
         id="g10"><path
           style="clip-rule:evenodd;fill:#2a8aca;fill-rule:evenodd"
           id="path8"
           d="m 159.408,292.834 5.775,3.341 6.41,-3.691 v -35.309 l -12.185,-7.018 z M 165.555,150.99 93,192.778 v 13.794 l 12.185,6.962 v -13.738 l 54.223,-31.229 v 56.102 l 12.185,7.018 v -63.225 l 54.223,31.153 v 29.669 L 238,236.262 v -43.647 z" /></g></g></g><g
     transform="translate(-80.56872,-137.88626)"
     enable-background="new    "
     id="TS_1_"><g
       id="TS"><g
         id="g16"><path
           style="clip-rule:evenodd;fill:#2a8aca;fill-rule:evenodd"
           id="path14"
           d="m 320.331,212.001 h -58.147 c -0.106,0 -0.172,0.067 -0.199,0.201 v 9.814 c 0,0.134 0.066,0.2 0.199,0.2 h 22.282 v 32.567 c 0,0.134 0.066,0.2 0.199,0.2 h 13.266 c 0.132,0 0.198,-0.066 0.198,-0.2 v -32.567 h 22.202 c 0.133,0 0.199,-0.066 0.199,-0.2 v -9.814 c 0,-0.106 -0.066,-0.174 -0.199,-0.201 z m 21.25,10.216 h 41.267 c 0.133,0 0.199,-0.066 0.199,-0.2 v -9.814 c 0,-0.106 -0.066,-0.174 -0.199,-0.201 h -45.08 c -2.065,0.135 -4.329,0.775 -6.792,1.923 -4.315,2.564 -6.474,5.809 -6.474,9.734 v 2.965 c 0,2.163 0.728,4.22 2.185,6.169 3.071,3.579 6.884,5.368 11.438,5.368 h 27.645 c 0.608,0 1.125,0.094 1.549,0.28 1.376,0.668 2.065,1.669 2.065,3.004 0,0.107 -0.054,0.481 -0.159,1.122 -0.636,1.496 -1.787,2.243 -3.455,2.243 H 324.7 c -0.105,0 -0.172,0.054 -0.198,0.16 v 9.814 c 0,0.134 0.065,0.2 0.198,0.2 h 44.882 c 2.118,0 4.184,-0.453 6.196,-1.361 4.846,-2.591 7.269,-5.982 7.269,-10.176 v -2.964 c 0,-2.457 -0.928,-4.767 -2.78,-6.931 -3.046,-3.15 -6.541,-4.727 -10.486,-4.727 H 341.74 c -0.582,0 -1.086,-0.094 -1.509,-0.28 -1.404,-0.667 -2.105,-1.655 -2.105,-2.965 -10e-4,-1.948 1.151,-3.069 3.455,-3.363 z" /></g></g></g><g
     transform="translate(-80.56872,-137.88626)"
     enable-background="new    "
     id="Intermedia_1_"><g
       id="Intermedia"><g
         id="g22"><path
           style="clip-rule:evenodd;fill:#56caf1;fill-rule:evenodd"
           id="path20"
           d="m 410.878,212.001 h -13.227 c -0.105,0 -0.172,0.067 -0.198,0.201 v 42.582 c 0,0.134 0.065,0.2 0.198,0.2 h 13.227 c 0.132,0 0.198,-0.066 0.198,-0.2 v -42.582 c 0,-0.106 -0.066,-0.174 -0.198,-0.201 z m 62.517,0 h -13.267 c -0.105,0 -0.172,0.067 -0.198,0.201 v 28.842 h -0.079 c -12.71,-11.857 -23.13,-21.538 -31.259,-29.043 h -13.345 c -0.106,0 -0.173,0.067 -0.199,0.201 v 42.582 c 0,0.134 0.066,0.2 0.199,0.2 h 13.226 c 0.133,0 0.199,-0.066 0.199,-0.2 v -28.722 l 31.179,28.922 h 13.544 c 0.132,0 0.198,-0.066 0.198,-0.2 v -42.582 c 0,-0.106 -0.067,-0.174 -0.198,-0.201 z m 57.092,0 h -53.809 c -0.106,0 -0.173,0.067 -0.198,0.201 v 9.814 c 0,0.134 0.065,0.2 0.198,0.2 h 20.112 v 32.567 c 0,0.134 0.066,0.2 0.199,0.2 h 13.266 c 0.132,0 0.198,-0.066 0.198,-0.2 v -32.567 h 20.033 c 0.133,0 0.199,-0.066 0.199,-0.2 v -9.814 c 0.002,-0.106 -0.065,-0.174 -0.198,-0.201 z m 51.671,32.809 h -33.877 v -6.649 h 22.239 c 0.133,0 0.199,-0.066 0.199,-0.2 v -8.934 c 0,-0.106 -0.066,-0.173 -0.199,-0.2 l -35.862,0.061 v 25.897 c 0,0.134 0.065,0.2 0.198,0.2 h 47.302 c 0.133,0 0.199,-0.066 0.199,-0.2 v -9.814 c 0,-0.108 -0.066,-0.161 -0.199,-0.161 z m 0,-32.809 h -47.302 c -0.105,0 -0.172,0.067 -0.198,0.201 v 10.121 l 47.5,-0.106 c 0.133,0 0.199,-0.066 0.199,-0.2 v -9.814 c 0,-0.107 -0.066,-0.175 -0.199,-0.202 z m 44.912,0 h -40.543 c -0.106,0 -0.173,0.067 -0.198,0.201 v 42.582 c 0,0.134 0.065,0.2 0.198,0.2 h 13.227 c 0.132,0 0.198,-0.066 0.198,-0.2 v -11.617 h 16.354 c 4.872,7.425 7.507,11.364 7.904,11.817 h 16.125 l 0.199,-0.08 -8.301,-12.618 1.707,-0.762 c 4.396,-2.644 6.594,-5.981 6.594,-10.015 v -7.771 c 0,-2.51 -0.928,-4.847 -2.78,-7.01 -3.044,-3.151 -6.606,-4.727 -10.684,-4.727 z m -0.357,17.306 c -0.741,2.431 -2.489,3.646 -5.242,3.646 h -21.519 v -10.735 h 21.677 c 0.688,0 1.363,0.094 2.026,0.28 2.145,0.854 3.217,2.577 3.217,5.167 0,0.534 -0.054,1.081 -0.159,1.642 z m 81.581,-17.306 h -13.663 c -0.053,0 -6.09,7.091 -18.111,21.271 l -18.19,-21.271 h -13.624 c -0.105,0 -0.172,0.067 -0.198,0.201 v 42.582 c 0,0.134 0.065,0.2 0.198,0.2 h 13.227 c 0.132,0 0.198,-0.066 0.198,-0.2 v -25.357 c 12.101,14.181 18.204,21.285 18.311,21.312 h 0.198 l 18.191,-21.312 v 25.357 c 0,0.134 0.065,0.2 0.198,0.2 h 13.266 c 0.105,0 0.159,-0.066 0.159,-0.2 v -42.582 c -10e-4,-0.106 -0.055,-0.174 -0.16,-0.201 z m 100.882,0 h -44.882 c -0.105,0 -0.172,0.067 -0.198,0.201 v 42.582 c 0,0.134 0.065,0.2 0.198,0.2 h 45.08 c 2.33,0 4.779,-0.707 7.349,-2.123 3.944,-2.617 5.918,-5.755 5.918,-9.414 v -19.709 c 0,-2.51 -0.928,-4.847 -2.78,-7.01 -3.073,-3.151 -6.634,-4.727 -10.685,-4.727 z m -0.198,25.879 c 0,0.667 -0.094,1.335 -0.278,2.003 -1.298,3.284 -3.482,4.927 -6.554,4.927 h -24.427 v -22.593 h 24.308 c 0.874,0 1.642,0.12 2.304,0.36 3.098,1.281 4.647,3.499 4.647,6.649 z m 31.059,-25.879 H 826.81 c -0.106,0 -0.173,0.067 -0.198,0.201 v 42.582 c 0,0.134 0.065,0.2 0.198,0.2 h 13.227 c 0.132,0 0.198,-0.066 0.198,-0.2 v -42.582 c 0,-0.106 -0.066,-0.174 -0.198,-0.201 z m 51.156,14.062 c -5.322,-9.134 -8.116,-13.82 -8.38,-14.062 H 869.27 c -0.609,0.936 -8.964,15.196 -25.063,42.783 v 0.2 h 15.729 l 16.126,-27.48 16.284,27.48 h 15.648 v -0.08 c -0.45,-0.827 -6.051,-10.441 -16.801,-28.841 z M 760.028,212.001 h -47.302 c -0.106,0 -0.173,0.067 -0.199,0.201 v 10.121 l 47.501,-0.106 c 0.132,0 0.198,-0.066 0.198,-0.2 v -9.814 c 10e-4,-0.107 -0.066,-0.175 -0.198,-0.202 z m 0,32.809 h -33.877 v -6.649 h 22.239 c 0.132,0 0.198,-0.066 0.198,-0.2 v -8.934 c 0,-0.106 -0.066,-0.173 -0.198,-0.2 l -35.863,0.061 v 25.897 c 0,0.134 0.066,0.2 0.199,0.2 h 47.302 c 0.132,0 0.198,-0.066 0.198,-0.2 v -9.814 c 10e-4,-0.108 -0.066,-0.161 -0.198,-0.161 z" /></g></g></g></svg>