<?xml version="1.0" encoding="utf-8"?>
<!-- Generator: Adobe Illustrator 16.0.2, SVG Export Plug-In . SVG Version: 6.00 Build 0)  -->
<!DOCTYPE svg PUBLIC "-//W3C//DTD SVG 1.1//EN" "http://www.w3.org/Graphics/SVG/1.1/DTD/svg11.dtd">
<svg version="1.1" xmlns="http://www.w3.org/2000/svg" xmlns:xlink="http://www.w3.org/1999/xlink" x="0px" y="0px" width="1000px"
	 height="444px" viewBox="0 0 1000 444" enable-background="new 0 0 1000 444" xml:space="preserve">
<g id="Rectangle_1_1_" enable-background="new    ">
	<g id="Rectangle_1">
		<g>
			<path fill-rule="evenodd" clip-rule="evenodd" fill="#56CAF1" d="M177.076,214.762v14.036l48.739,28.07v13.026l-59.773,34.152
				l-60.856-34.855V227.48L93,220.519v55.674l73.012,41.817L238,276.879v-27.028L177.076,214.762z M177.076,270.394v13.945
				l38.242-21.85l-85.788-49.408l23.785-13.623v-13.979l-35.955,20.593l-0.049,14.008l73.617,42.399L177.076,270.394z
				 M202.055,217.112l12.185,6.686v-18.036l-37.164-21.233v13.945l24.979,14.271V217.112z M153.315,269.409l-24.37-13.958v-14.028
				l-12.185-7.293v28.322l36.555,20.937V269.409z"/>
		</g>
	</g>
</g>
<g id="Rectangle_1_copy_1_" enable-background="new    ">
	<g id="Rectangle_1_copy">
		<g>
			<path fill-rule="evenodd" clip-rule="evenodd" fill="#2A8ACA" d="M159.408,292.834l5.775,3.341l6.41-3.691v-35.309l-12.185-7.018
				V292.834z M165.555,150.99L93,192.778v13.794l12.185,6.962v-13.738l54.223-31.229v56.102l12.185,7.018v-63.225l54.223,31.153
				v29.669L238,236.262v-43.647L165.555,150.99z"/>
		</g>
	</g>
</g>
<g id="TS_1_" enable-background="new    ">
	<g id="TS">
		<g>
			<path fill-rule="evenodd" clip-rule="evenodd" fill="#2A8ACA" d="M320.331,212.001h-58.147c-0.106,0-0.172,0.067-0.199,0.201
				v9.814c0,0.134,0.066,0.2,0.199,0.2h22.282v32.567c0,0.134,0.066,0.2,0.199,0.2h13.266c0.132,0,0.198-0.066,0.198-0.2v-32.567
				h22.202c0.133,0,0.199-0.066,0.199-0.2v-9.814C320.53,212.096,320.464,212.028,320.331,212.001z M341.581,222.217h41.267
				c0.133,0,0.199-0.066,0.199-0.2v-9.814c0-0.106-0.066-0.174-0.199-0.201h-45.08c-2.065,0.135-4.329,0.775-6.792,1.923
				c-4.315,2.564-6.474,5.809-6.474,9.734v2.965c0,2.163,0.728,4.22,2.185,6.169c3.071,3.579,6.884,5.368,11.438,5.368h27.645
				c0.608,0,1.125,0.094,1.549,0.28c1.376,0.668,2.065,1.669,2.065,3.004c0,0.107-0.054,0.481-0.159,1.122
				c-0.636,1.496-1.787,2.243-3.455,2.243H324.7c-0.105,0-0.172,0.054-0.198,0.16v9.814c0,0.134,0.065,0.2,0.198,0.2h44.882
				c2.118,0,4.184-0.453,6.196-1.361c4.846-2.591,7.269-5.982,7.269-10.176v-2.964c0-2.457-0.928-4.767-2.78-6.931
				c-3.046-3.15-6.541-4.727-10.486-4.727h-28.041c-0.582,0-1.086-0.094-1.509-0.28c-1.404-0.667-2.105-1.655-2.105-2.965
				C338.125,223.632,339.277,222.511,341.581,222.217z"/>
		</g>
	</g>
</g>
<g id="Intermedia_1_" enable-background="new    ">
	<g id="Intermedia">
		<g>
			<path fill-rule="evenodd" clip-rule="evenodd" fill="#56CAF1" d="M410.878,212.001h-13.227c-0.105,0-0.172,0.067-0.198,0.201
				v42.582c0,0.134,0.065,0.2,0.198,0.2h13.227c0.132,0,0.198-0.066,0.198-0.2v-42.582
				C411.076,212.096,411.01,212.028,410.878,212.001z M473.395,212.001h-13.267c-0.105,0-0.172,0.067-0.198,0.201v28.842h-0.079
				c-12.71-11.857-23.13-21.538-31.259-29.043h-13.345c-0.106,0-0.173,0.067-0.199,0.201v42.582c0,0.134,0.066,0.2,0.199,0.2h13.226
				c0.133,0,0.199-0.066,0.199-0.2v-28.722l31.179,28.922h13.544c0.132,0,0.198-0.066,0.198-0.2v-42.582
				C473.593,212.096,473.526,212.028,473.395,212.001z M530.487,212.001h-53.809c-0.106,0-0.173,0.067-0.198,0.201v9.814
				c0,0.134,0.065,0.2,0.198,0.2h20.112v32.567c0,0.134,0.066,0.2,0.199,0.2h13.266c0.132,0,0.198-0.066,0.198-0.2v-32.567h20.033
				c0.133,0,0.199-0.066,0.199-0.2v-9.814C530.687,212.096,530.62,212.028,530.487,212.001z M582.158,244.81h-33.877v-6.649h22.239
				c0.133,0,0.199-0.066,0.199-0.2v-8.934c0-0.106-0.066-0.173-0.199-0.2l-35.862,0.061v25.897c0,0.134,0.065,0.2,0.198,0.2h47.302
				c0.133,0,0.199-0.066,0.199-0.2v-9.814C582.357,244.863,582.291,244.81,582.158,244.81z M582.158,212.001h-47.302
				c-0.105,0-0.172,0.067-0.198,0.201v10.121l47.5-0.106c0.133,0,0.199-0.066,0.199-0.2v-9.814
				C582.357,212.096,582.291,212.028,582.158,212.001z M627.07,212.001h-40.543c-0.106,0-0.173,0.067-0.198,0.201v42.582
				c0,0.134,0.065,0.2,0.198,0.2h13.227c0.132,0,0.198-0.066,0.198-0.2v-11.617h16.354c4.872,7.425,7.507,11.364,7.904,11.817
				h16.125l0.199-0.08l-8.301-12.618l1.707-0.762c4.396-2.644,6.594-5.981,6.594-10.015v-7.771c0-2.51-0.928-4.847-2.78-7.01
				C634.71,213.577,631.148,212.001,627.07,212.001z M626.713,229.307c-0.741,2.431-2.489,3.646-5.242,3.646h-21.519v-10.735h21.677
				c0.688,0,1.363,0.094,2.026,0.28c2.145,0.854,3.217,2.577,3.217,5.167C626.872,228.199,626.818,228.746,626.713,229.307z
				 M708.294,212.001h-13.663c-0.053,0-6.09,7.091-18.111,21.271l-18.19-21.271h-13.624c-0.105,0-0.172,0.067-0.198,0.201v42.582
				c0,0.134,0.065,0.2,0.198,0.2h13.227c0.132,0,0.198-0.066,0.198-0.2v-25.357c12.101,14.181,18.204,21.285,18.311,21.312h0.198
				l18.191-21.312v25.357c0,0.134,0.065,0.2,0.198,0.2h13.266c0.105,0,0.159-0.066,0.159-0.2v-42.582
				C708.453,212.096,708.399,212.028,708.294,212.001z M809.176,212.001h-44.882c-0.105,0-0.172,0.067-0.198,0.201v42.582
				c0,0.134,0.065,0.2,0.198,0.2h45.08c2.33,0,4.779-0.707,7.349-2.123c3.944-2.617,5.918-5.755,5.918-9.414v-19.709
				c0-2.51-0.928-4.847-2.78-7.01C816.788,213.577,813.227,212.001,809.176,212.001z M808.978,237.88
				c0,0.667-0.094,1.335-0.278,2.003c-1.298,3.284-3.482,4.927-6.554,4.927h-24.427v-22.593h24.308c0.874,0,1.642,0.12,2.304,0.36
				c3.098,1.281,4.647,3.499,4.647,6.649V237.88z M840.037,212.001h-13.227c-0.106,0-0.173,0.067-0.198,0.201v42.582
				c0,0.134,0.065,0.2,0.198,0.2h13.227c0.132,0,0.198-0.066,0.198-0.2v-42.582C840.235,212.096,840.169,212.028,840.037,212.001z
				 M891.193,226.063c-5.322-9.134-8.116-13.82-8.38-14.062H869.27c-0.609,0.936-8.964,15.196-25.063,42.783v0.2h15.729
				l16.126-27.48l16.284,27.48h15.648v-0.08C907.544,254.077,901.943,244.463,891.193,226.063z M760.028,212.001h-47.302
				c-0.106,0-0.173,0.067-0.199,0.201v10.121l47.501-0.106c0.132,0,0.198-0.066,0.198-0.2v-9.814
				C760.227,212.096,760.16,212.028,760.028,212.001z M760.028,244.81h-33.877v-6.649h22.239c0.132,0,0.198-0.066,0.198-0.2v-8.934
				c0-0.106-0.066-0.173-0.198-0.2l-35.863,0.061v25.897c0,0.134,0.066,0.2,0.199,0.2h47.302c0.132,0,0.198-0.066,0.198-0.2v-9.814
				C760.227,244.863,760.16,244.81,760.028,244.81z"/>
		</g>
	</g>
</g>
</svg>
